# xmcd
#
# Track frame offsets: 
#        150
#        15629
#        26234
#        41728
#        55786
#        72197
#        90595
#        103883
#        117534
#        136597
#        154695
#
# Disc length: 2294 seconds
#
# Revision: 0
# Processed by: cddbd v1.5.2PL0 Copyright (c) Steve Scherf et al.
# Submitted via: ExactAudioCopy v1.1
#
DISCID=8f08f40b
DTITLE=Leon Bridges - COMING HOME
DYEAR=2016
DGENRE=Soul
TTITLE0=Coming Home
TTITLE1=Better Man
TTITLE2=Brown Skin Girl
TTITLE3=Smooth Sailin'
TTITLE4=Shine
TTITLE5=Lisa Sawyer
TTITLE6=Flowers
TTITLE7=Pull Away
TTITLE8=Twistin'&Groovin'
TTITLE9=River
TTITLE10=So Long
EXTD=
EXTT0=
EXTT1=
EXTT2=
EXTT3=
EXTT4=
EXTT5=
EXTT6=
EXTT7=
EXTT8=
EXTT9=
EXTT10=
PLAYORDER=
